<svg width="97" height="97" viewBox="0 0 97 97" fill="none" xmlns="http://www.w3.org/2000/svg">
<path d="M80 0C89.3888 5.47619e-07 97 7.61116 97 17V97H17C7.61116 97 0 89.3888 0 80V17C5.47655e-07 7.61116 7.61116 0 17 0H80ZM23 62.9766C21.3431 62.9766 20 64.3197 20 65.9766V69.9648C20 71.6217 21.3431 72.9648 23 72.9648H74C75.6569 72.9648 77 71.6217 77 69.9648V65.9766C77 64.3197 75.6569 62.9766 74 62.9766H23ZM23 43.9883C21.3431 43.9883 20 45.3314 20 46.9883V50.9766C20 52.6334 21.3431 53.9766 23 53.9766H74C75.6569 53.9766 77 52.6334 77 50.9766V46.9883C77 45.3314 75.6569 43.9883 74 43.9883H23ZM23 25C21.3431 25 20 26.3431 20 28V31.9883C20 33.6451 21.3431 34.9883 23 34.9883H74C75.6569 34.9883 77 33.6451 77 31.9883V28C77 26.3431 75.6569 25 74 25H23Z" fill="#B62E08"/>
</svg>
