<svg width="393" height="97" viewBox="0 0 393 97" fill="none" xmlns="http://www.w3.org/2000/svg">
<path d="M80 0C89.3888 5.47619e-07 97 7.61116 97 17V97H17C7.61116 97 0 89.3888 0 80V17C5.47655e-07 7.61116 7.61116 0 17 0H80ZM23 62.9766C21.3431 62.9766 20 64.3197 20 65.9766V69.9648C20 71.6217 21.3431 72.9648 23 72.9648H74C75.6569 72.9648 77 71.6217 77 69.9648V65.9766C77 64.3197 75.6569 62.9766 74 62.9766H23ZM23 43.9883C21.3431 43.9883 20 45.3314 20 46.9883V50.9766C20 52.6334 21.3431 53.9766 23 53.9766H74C75.6569 53.9766 77 52.6334 77 50.9766V46.9883C77 45.3314 75.6569 43.9883 74 43.9883H23ZM23 25C21.3431 25 20 26.3431 20 28V31.9883C20 33.6451 21.3431 34.9883 23 34.9883H74C75.6569 34.9883 77 33.6451 77 31.9883V28C77 26.3431 75.6569 25 74 25H23Z" fill="#B62E08"/>
<path d="M359.786 32.704C358.682 32.704 357.786 31.8086 357.786 30.704V29.84C357.786 28.7354 358.682 27.84 359.786 27.84H390.602C391.707 27.84 392.602 28.7354 392.602 29.84V30.704C392.602 31.8086 391.707 32.704 390.602 32.704H379.882C378.778 32.704 377.882 33.5994 377.882 34.704V70C377.882 71.1046 376.987 72 375.882 72H374.506C373.402 72 372.506 71.1046 372.506 70V34.704C372.506 33.5994 371.611 32.704 370.506 32.704H359.786Z" fill="#B62E08"/>
<path d="M336.26 72C329.633 72 324.26 66.6274 324.26 60V39.84C324.26 33.2126 329.633 27.84 336.26 27.84H350.628C351.971 27.84 353.06 28.9288 353.06 30.272V30.272C353.06 31.6152 351.971 32.704 350.628 32.704H336.484C332.702 32.704 329.636 35.77 329.636 39.552V39.552C329.636 43.334 332.702 46.4 336.484 46.4H348.708C350.051 46.4 351.14 47.4888 351.14 48.832V48.832C351.14 50.1752 350.051 51.264 348.708 51.264H337.572C333.189 51.264 329.636 54.8171 329.636 59.2V59.2C329.636 63.5829 333.189 67.136 337.572 67.136H350.628C351.971 67.136 353.06 68.2248 353.06 69.568V69.568C353.06 70.9112 351.971 72 350.628 72H336.26Z" fill="#B62E08"/>
<path d="M280.886 72C279.401 72 278.198 70.7965 278.198 69.312V31.6962C278.198 29.5665 279.924 27.84 282.054 27.84V27.84C283.361 27.84 284.579 28.502 285.29 29.5987L298.186 49.4939C300.895 53.6731 307.382 51.7546 307.382 46.7742V30.528C307.382 29.0435 308.585 27.84 310.07 27.84V27.84C311.554 27.84 312.758 29.0435 312.758 30.528V68.1438C312.758 70.2735 311.031 72 308.901 72V72C307.594 72 306.376 71.338 305.666 70.2413L292.769 50.3461C290.06 46.1669 283.574 48.0854 283.574 53.0658V69.312C283.574 70.7965 282.37 72 280.886 72V72Z" fill="#B62E08"/>
<path d="M252.448 72C245.82 72 240.448 66.6274 240.448 60V39.84C240.448 33.2126 245.82 27.84 252.448 27.84H266.816C268.159 27.84 269.248 28.9288 269.248 30.272V30.272C269.248 31.6152 268.159 32.704 266.816 32.704H252.672C248.889 32.704 245.824 35.77 245.824 39.552V39.552C245.824 43.334 248.889 46.4 252.672 46.4H264.896C266.239 46.4 267.328 47.4888 267.328 48.832V48.832C267.328 50.1752 266.239 51.264 264.896 51.264H253.76C249.377 51.264 245.824 54.8171 245.824 59.2V59.2C245.824 63.5829 249.377 67.136 253.76 67.136H266.816C268.159 67.136 269.248 68.2248 269.248 69.568V69.568C269.248 70.9112 268.159 72 266.816 72H252.448Z" fill="#B62E08"/>
<path d="M196.933 62.208C196.933 62.208 196.933 47.2295 196.933 37.632C196.933 31.104 200.197 27.84 206.725 27.84C212.633 27.84 221.135 27.84 224.55 27.84C225.524 27.84 226.47 28.165 227.24 28.7635L228.252 29.5509C228.682 29.8847 228.933 30.3981 228.933 30.9418V30.9418C228.933 31.9151 228.144 32.704 227.171 32.704C223.217 32.704 213.452 32.704 206.661 32.704C203.759 32.704 202.309 34.1547 202.309 37.056C202.309 47.1034 202.309 62.784 202.309 62.784C202.309 65.6853 203.759 67.136 206.661 67.136H222.837C223.941 67.136 224.837 66.2406 224.837 65.136V54.264C224.837 52.6071 223.493 51.264 221.837 51.264H216.389C215.045 51.264 213.957 50.1752 213.957 48.832V48.832C213.957 47.4888 215.045 46.4 216.389 46.4H224.213C227.526 46.4 230.213 49.0863 230.213 52.4V68C230.213 70.2091 228.422 72 226.213 72H206.725C200.197 72 196.933 68.736 196.933 62.208Z" fill="#B62E08"/>
<path d="M171.823 72C165.195 72 159.823 66.6274 159.823 60V39.84C159.823 33.2126 165.195 27.84 171.823 27.84H186.191C187.534 27.84 188.623 28.9288 188.623 30.272V30.272C188.623 31.6152 187.534 32.704 186.191 32.704H172.047C168.264 32.704 165.199 35.77 165.199 39.552V39.552C165.199 43.334 168.264 46.4 172.047 46.4H184.271C185.614 46.4 186.703 47.4888 186.703 48.832V48.832C186.703 50.1752 185.614 51.264 184.271 51.264H173.135C168.752 51.264 165.199 54.8171 165.199 59.2V59.2C165.199 63.5829 168.752 67.136 173.135 67.136H186.191C187.534 67.136 188.623 68.2248 188.623 69.568V69.568C188.623 70.9112 187.534 72 186.191 72H171.823Z" fill="#B62E08"/>
<path d="M116.448 72C114.963 72 113.76 70.7965 113.76 69.312V31.6962C113.76 29.5665 115.486 27.84 117.616 27.84V27.84C118.923 27.84 120.141 28.502 120.852 29.5987L133.748 49.4939C136.457 53.6731 142.944 51.7546 142.944 46.7742V30.528C142.944 29.0435 144.147 27.84 145.632 27.84V27.84C147.117 27.84 148.32 29.0435 148.32 30.528V68.1438C148.32 70.2735 146.594 72 144.464 72V72C143.157 72 141.939 71.338 141.228 70.2413L128.332 50.3461C125.623 46.1669 119.136 48.0854 119.136 53.0658V69.312C119.136 70.7965 117.933 72 116.448 72V72Z" fill="#B62E08"/>
</svg>
