<svg width="279" height="45" viewBox="0 0 279 45" fill="none" xmlns="http://www.w3.org/2000/svg">
<path d="M246.026 4.864C244.921 4.864 244.026 3.96857 244.026 2.864V2C244.026 0.895432 244.921 0 246.026 0H276.842C277.946 0 278.842 0.89543 278.842 2V2.864C278.842 3.96857 277.946 4.864 276.842 4.864H266.122C265.017 4.864 264.122 5.75943 264.122 6.864V42.16C264.122 43.2646 263.226 44.16 262.122 44.16H260.746C259.641 44.16 258.746 43.2646 258.746 42.16V6.864C258.746 5.75943 257.85 4.864 256.746 4.864H246.026Z" fill="#B62E08"/>
<path d="M222.5 44.16C215.873 44.16 210.5 38.7874 210.5 32.16V12C210.5 5.37258 215.873 0 222.5 0H236.868C238.211 0 239.3 1.08884 239.3 2.432V2.432C239.3 3.77516 238.211 4.864 236.868 4.864H222.724C218.942 4.864 215.876 7.92996 215.876 11.712V11.712C215.876 15.4941 218.942 18.56 222.724 18.56H234.948C236.291 18.56 237.38 19.6488 237.38 20.992V20.992C237.38 22.3352 236.291 23.424 234.948 23.424H223.812C219.429 23.424 215.876 26.9771 215.876 31.36V31.36C215.876 35.7429 219.429 39.296 223.812 39.296H236.868C238.211 39.296 239.3 40.3848 239.3 41.728V41.728C239.3 43.0712 238.211 44.16 236.868 44.16H222.5Z" fill="#B62E08"/>
<path d="M167.126 44.16C165.641 44.16 164.438 42.9565 164.438 41.472V3.85618C164.438 1.72647 166.164 0 168.294 0V0C169.601 0 170.819 0.661979 171.53 1.75867L184.426 21.6539C187.135 25.8331 193.622 23.9146 193.622 18.9342V2.68801C193.622 1.20346 194.825 0 196.31 0V0C197.794 0 198.998 1.20346 198.998 2.688V40.3038C198.998 42.4335 197.271 44.16 195.141 44.16V44.16C193.834 44.16 192.616 43.498 191.906 42.4013L179.009 22.5061C176.3 18.3269 169.814 20.2454 169.814 25.2258V41.472C169.814 42.9565 168.61 44.16 167.126 44.16V44.16Z" fill="#B62E08"/>
<path d="M138.688 44.16C132.06 44.16 126.688 38.7874 126.688 32.16V12C126.688 5.37258 132.06 0 138.688 0H153.056C154.399 0 155.488 1.08884 155.488 2.432V2.432C155.488 3.77516 154.399 4.864 153.056 4.864H138.912C135.129 4.864 132.064 7.92996 132.064 11.712V11.712C132.064 15.4941 135.129 18.56 138.912 18.56H151.136C152.479 18.56 153.568 19.6488 153.568 20.992V20.992C153.568 22.3352 152.479 23.424 151.136 23.424H140C135.617 23.424 132.064 26.9771 132.064 31.36V31.36C132.064 35.7429 135.617 39.296 140 39.296H153.056C154.399 39.296 155.488 40.3848 155.488 41.728V41.728C155.488 43.0712 154.399 44.16 153.056 44.16H138.688Z" fill="#B62E08"/>
<path d="M83.1724 34.368C83.1724 34.368 83.1724 19.3895 83.1724 9.792C83.1724 3.264 86.4364 0 92.9644 0C98.873 0 107.375 0 110.789 0C111.764 0 112.71 0.324973 113.48 0.923541L114.492 1.71088C114.921 2.04473 115.172 2.55806 115.172 3.10184V3.10184C115.172 4.07506 114.384 4.864 113.411 4.864C109.457 4.864 99.6919 4.864 92.9004 4.864C89.999 4.864 88.5484 6.31467 88.5484 9.216C88.5484 19.2634 88.5484 34.944 88.5484 34.944C88.5484 37.8453 89.999 39.296 92.9004 39.296H109.076C110.181 39.296 111.076 38.4006 111.076 37.296V26.424C111.076 24.7671 109.733 23.424 108.076 23.424H102.628C101.285 23.424 100.196 22.3352 100.196 20.992V20.992C100.196 19.6488 101.285 18.56 102.628 18.56H110.452C113.766 18.56 116.452 21.2463 116.452 24.56V40.16C116.452 42.3691 114.662 44.16 112.452 44.16H92.9644C86.4364 44.16 83.1724 40.896 83.1724 34.368Z" fill="#B62E08"/>
<path d="M58.0625 44.16C51.4351 44.16 46.0625 38.7874 46.0625 32.16V12C46.0625 5.37258 51.4351 0 58.0625 0H72.4305C73.7737 0 74.8625 1.08884 74.8625 2.432V2.432C74.8625 3.77516 73.7737 4.864 72.4305 4.864H58.2865C54.5045 4.864 51.4385 7.92996 51.4385 11.712V11.712C51.4385 15.4941 54.5045 18.56 58.2865 18.56H70.5105C71.8537 18.56 72.9425 19.6488 72.9425 20.992V20.992C72.9425 22.3352 71.8537 23.424 70.5105 23.424H59.3745C54.9916 23.424 51.4385 26.9771 51.4385 31.36V31.36C51.4385 35.7429 54.9916 39.296 59.3745 39.296H72.4305C73.7737 39.296 74.8625 40.3848 74.8625 41.728V41.728C74.8625 43.0712 73.7737 44.16 72.4305 44.16H58.0625Z" fill="#B62E08"/>
<path d="M2.688 44.16C1.20346 44.16 0 42.9565 0 41.472V3.85617C0 1.72646 1.72647 0 3.85617 0V0C5.16311 0 6.3811 0.661978 7.09199 1.75867L19.9884 21.6539C22.6974 25.8331 29.184 23.9146 29.184 18.9342V2.68801C29.184 1.20346 30.3875 0 31.872 0V0C33.3565 0 34.56 1.20346 34.56 2.688V40.3038C34.56 42.4335 32.8335 44.16 30.7038 44.16V44.16C29.3969 44.16 28.1789 43.498 27.468 42.4013L14.5716 22.5061C11.8626 18.3269 5.376 20.2454 5.376 25.2258V41.472C5.376 42.9565 4.17254 44.16 2.688 44.16V44.16Z" fill="#B62E08"/>
</svg>
